<svg xmlns="http://www.w3.org/2000/svg" width="13.94" height="7.9" viewBox="0 0 13.94 7.9">
  <defs>
    <style>
      .cls-1 {
        fill: #fff;
        fill-rule: evenodd;
      }
    </style>
  </defs>
  <path id="Icon" class="cls-1" d="M1275.77,3415.77l-6.27-6.37a0.809,0.809,0,0,0-1.15,0l-6.28,6.37a0.43,0.43,0,0,0,0,.58l0.58,0.59a0.41,0.41,0,0,0,.58,0l5.4-5.49a0.394,0.394,0,0,1,.58,0l5.41,5.49a0.4,0.4,0,0,0,.57,0l0.58-.59a0.41,0.41,0,0,0,0-.58" transform="translate(-1261.97 -3409.16)"/>
</svg>
