<svg xmlns="http://www.w3.org/2000/svg" width="19" height="16" viewBox="0 0 19 16">
  <defs>
    <style>
      .cls-1 {
        fill: #bdc6cf;
        fill-rule: evenodd;
        opacity: 0.5;
      }
    </style>
  </defs>
  <path id="Icon" class="cls-1" d="M1193.73,2883c0.78,0,1.55.02,2.3,0.02,0.2,0,.44,0,0.44.25,0,0.73-1.24.73-1.77,0.8a2.843,2.843,0,0,1,1.07,2.43c0,2.8-2.35,3.17-2.35,3.99,0,0.75,3.05,1.86,3.05,4.44,0,2.86-2.84,4.07-5.5,4.07-2.3,0-4.97-.93-4.97-3.46,0-2.69,3.15-3.44,5.48-3.44-0.29-.75-0.56.05-0.56-1.5-2.33,0-3.97-1.27-3.97-3.53a3.923,3.923,0,0,1,3.07-3.73A14.374,14.374,0,0,1,1193.73,2883Zm-2.08,6.08c1.16,0,1.55-1,1.55-1.94,0-1.18-.75-3.12-2.28-3.12a1.683,1.683,0,0,0-1.55,1.94C1189.37,2887.14,1190.12,2889.08,1191.65,2889.08Zm-0.34,8.14c1.33,0,3.22-.77,3.22-2.23,0-1.43-1.72-2.04-3-2.04-1.41,0-3.23.61-3.23,2.18C1188.3,2896.59,1190,2897.22,1191.31,2897.22Zm11.27-10.1v2.28h-1.63v-2.28h-2.42v-1.5h2.42v-2.28h1.63v2.28H1205v1.5h-2.42Z" transform="translate(-1186 -2883)"/>
</svg>
