<svg xmlns="http://www.w3.org/2000/svg" width="16" height="16" viewBox="0 0 16 16">
  <defs>
    <style>
      .cls-1 {
        fill: #bdc6cf;
        fill-rule: evenodd;
        opacity: 0.5;
      }
    </style>
  </defs>
  <path id="Icon" class="cls-1" d="M1157.02,2890.1a1.306,1.306,0,0,1,.4,1.05,4.415,4.415,0,1,1-8.83,0,4.209,4.209,0,0,1,.14-1.05H1145v7.47a1.4,1.4,0,0,0,1.33,1.43h13.34a1.4,1.4,0,0,0,1.33-1.43v-7.47h-3.98Zm-1.43,1.12a2.717,2.717,0,1,1-2.72-2.81,2.78,2.78,0,0,1,2.72,2.81h0Zm4.32-4.93a0.51,0.51,0,0,1-.55.46h-2.13a0.537,0.537,0,0,1-.57-0.46v-1.74a0.522,0.522,0,0,1,.57-0.45h2.13a0.5,0.5,0,0,1,.55.45v1.74h0Zm-0.34-3.29h-13.24a1.387,1.387,0,0,0-1.33,1.38v3.45h5.16a3.926,3.926,0,0,1,5.43,0H1161v-3.45a1.434,1.434,0,0,0-1.43-1.38h0Z" transform="translate(-1145 -2883)"/>
</svg>
