<svg xmlns="http://www.w3.org/2000/svg" width="15.81" height="15.69" viewBox="0 0 15.81 15.69">
  <defs>
    <style>
      .cls-1 {
        fill: #fff;
        fill-rule: evenodd;
      }
    </style>
  </defs>
  <path id="Icon" class="cls-1" d="M1259.25,2831.19l3.81,1.34a0.958,0.958,0,0,0,.84-0.09l8.45-5.12-6.97,6.32a0.894,0.894,0,0,0-.29.65l-0.03,5.48a0.486,0.486,0,0,0,.92.19l1.86-3.99a0.485,0.485,0,0,1,.67-0.22l4.93,2.62a0.482,0.482,0,0,0,.71-0.38l0.64-12.97a0.471,0.471,0,0,0-.66-0.44l-14.89,5.76a0.451,0.451,0,0,0,.01.85" transform="translate(-1258.97 -2824.53)"/>
</svg>
