<svg xmlns="http://www.w3.org/2000/svg" width="25" height="25" viewBox="0 0 25 25">
  <defs>
    <style>
      .cls-1 {
        fill: #5e6977;
        fill-rule: evenodd;
      }
    </style>
  </defs>
  <path class="cls-1" d="M971.437,1941.69h-1.562v-3.13a1.563,1.563,0,0,0-1.563-1.56H949.563a1.563,1.563,0,0,0-1.563,1.56v17.19a1.563,1.563,0,0,0,1.563,1.56h1.562v3.13a1.563,1.563,0,0,0,1.563,1.56h18.749a1.563,1.563,0,0,0,1.563-1.56v-17.19A1.563,1.563,0,0,0,971.437,1941.69Zm-21.874,14.06v-17.19h18.749v17.19H949.563Zm21.874,4.69H952.688v-3.13h1.562v1.56h15.625v-15.62h1.562v17.19Zm-11.882-17.04a2.173,2.173,0,0,0,4.346,0h0a2.173,2.173,0,1,0-4.346,0h0Zm-3.742,1.41-4.688,3.13v6.25H966.75v-7.81l-6.25,3.12Z" transform="translate(-948 -1937)"/>
</svg>
