<svg xmlns="http://www.w3.org/2000/svg" width="8.906" height="15.9" viewBox="0 0 8.906 15.9">
  <defs>
    <style>
      .cls-1 {
        fill: #bdc6cf;
        fill-rule: evenodd;
      }
    </style>
  </defs>
  <path id="Icon" class="cls-1" d="M340.675,1175.25l-7.164,7.16a0.936,0.936,0,0,0,0,1.32l7.164,7.17a0.468,0.468,0,0,0,.658,0l0.658-.66a0.469,0.469,0,0,0,0-.66l-6.178-6.18a0.467,0.467,0,0,1,0-.66l6.178-6.18a0.457,0.457,0,0,0,0-.65l-0.658-.66a0.468,0.468,0,0,0-.658,0" transform="translate(-333.25 -1175.13)"/>
</svg>
