<svg xmlns="http://www.w3.org/2000/svg" width="8.9" height="15.91" viewBox="0 0 8.9 15.91">
  <defs>
    <style>
      .cls-1 {
        fill: #bdc6cf;
        fill-rule: evenodd;
      }
    </style>
  </defs>
  <path id="Icon" class="cls-1" d="M1248.32,1191.75l7.17-7.16a0.942,0.942,0,0,0,0-1.32l-7.17-7.17a0.459,0.459,0,0,0-.65,0l-0.66.66a0.471,0.471,0,0,0,0,.66l6.18,6.18a0.471,0.471,0,0,1,0,.66l-6.18,6.17a0.471,0.471,0,0,0,0,.66l0.66,0.66a0.459,0.459,0,0,0,.65,0" transform="translate(-1246.88 -1176)"/>
</svg>
