<svg xmlns="http://www.w3.org/2000/svg" width="25.75" height="20.531" viewBox="0 0 25.75 20.531">
  <defs>
    <style>
      .cls-1 {
        fill: #bdc6cf;
        fill-rule: evenodd;
      }
    </style>
  </defs>
  <path id="BUTTON_-_Add_to_Favourites_copy" data-name="BUTTON - Add to Favourites copy" class="cls-1" d="M287.664,55.511c0.019,0.019.058,0.018,0,0h0Zm0,0,0,0-0.008-.011-0.009.009Zm3.089-9.45a6.148,6.148,0,0,1,8.437-5.728c0-.018,0-0.035-0.006-0.054a5.815,5.815,0,0,0-4.161-5.084,6.287,6.287,0,0,0-6.732,2.638c-0.181.272-.341,0.557-0.553,0.9-0.173-.3-0.289-0.514-0.417-0.72a6.286,6.286,0,0,0-7.279-2.7,6.209,6.209,0,0,0-3.753,6.474,8.6,8.6,0,0,0,2.669,5.369c1.085,1.072,2.248,2.068,3.42,3.047a26.364,26.364,0,0,1,5.274,5.286c1.144-1.2,2.207-2.373,3.346-3.471,0.537-.518,1.129-0.98,1.711-1.453A6.161,6.161,0,0,1,290.753,46.061Zm8.493-4.555a5.129,5.129,0,1,0,2.766,4.555A5.126,5.126,0,0,0,299.246,41.506Zm-0.206,5.3h-1.393v1.4a0.744,0.744,0,1,1-1.487,0v-1.4h-1.393a0.746,0.746,0,0,1,0-1.491h1.393v-1.4a0.744,0.744,0,1,1,1.487,0v1.4h1.393A0.746,0.746,0,0,1,299.04,46.807Z" transform="translate(-276.25 -35)"/>
</svg>
