<svg xmlns="http://www.w3.org/2000/svg" width="7.94" height="4.813" viewBox="0 0 7.94 4.813">
  <defs>
    <style>
      .cls-1 {
        fill: #bdc6cf;
        fill-rule: evenodd;
      }
    </style>
  </defs>
  <path id="Icon" class="cls-1" d="M1311.82,43.156l2.28,2.362a0.537,0.537,0,0,0,.77,0l2.29-2.362a0.524,0.524,0,0,1,.76,0l0.38,0.394a0.57,0.57,0,0,1,0,.787l-3.05,3.15a1.061,1.061,0,0,1-1.53,0l-3.05-3.15a0.57,0.57,0,0,1,0-.787l0.38-.394a0.535,0.535,0,0,1,.77,0" transform="translate(-1310.53 -43)"/>
</svg>
