<svg xmlns="http://www.w3.org/2000/svg" width="13.938" height="9.88" viewBox="0 0 13.938 9.88">
  <defs>
    <style>
      .cls-1 {
        fill: #86939e;
        fill-rule: evenodd;
      }
    </style>
  </defs>
  <path id="Icon" class="cls-1" d="M783.828,1282.52l-0.58-.58a0.41,0.41,0,0,0-.58,0l-7.484,7.51a0.41,0.41,0,0,1-.58,0l-3.305-3.32a0.41,0.41,0,0,0-.58,0l-0.58.58a0.41,0.41,0,0,0,0,.58l4.165,4.18a0.8,0.8,0,0,0,1.159,0l8.364-8.37a0.409,0.409,0,0,0,0-.58" transform="translate(-770.031 -1281.84)"/>
</svg>
