<svg xmlns="http://www.w3.org/2000/svg" width="15.91" height="15.907" viewBox="0 0 15.91 15.907">
  <defs>
    <style>
      .cls-1 {
        fill: #bdc6cf;
        fill-rule: evenodd;
      }
    </style>
  </defs>
  <path id="Icon" class="cls-1" d="M1063.09,966.4l-5.6,5.6a0.587,0.587,0,0,1-.83,0l-5.81-5.807a0.587,0.587,0,0,0-.83,0l-0.83.83a0.584,0.584,0,0,0,0,.829l5.81,5.807a0.585,0.585,0,0,1,0,.83l-5.6,5.6a0.585,0.585,0,0,0,0,.83l0.83,0.83a0.587,0.587,0,0,0,.83,0l5.6-5.6a0.587,0.587,0,0,1,.83,0l5.39,5.392a0.587,0.587,0,0,0,.83,0l0.83-.829a0.585,0.585,0,0,0,0-.83l-5.39-5.392a0.585,0.585,0,0,1,0-.83l5.6-5.6a0.6,0.6,0,0,0,0-.83l-0.83-.83a0.587,0.587,0,0,0-.83,0" transform="translate(-1049.03 -966.031)"/>
</svg>
