<svg xmlns="http://www.w3.org/2000/svg" width="15" height="16" viewBox="0 0 15 16">
  <defs>
    <style>
      .cls-1 {
        fill: #fff;
        fill-rule: evenodd;
      }
    </style>
  </defs>
  <path id="Icon" class="cls-1" d="M1053.5,616.708c-3.16,0-5.74-2.222-5.74-4.953s2.58-4.951,5.74-4.951,5.74,2.222,5.74,4.951-2.58,4.953-5.74,4.953m0-11.7c-4.14,0-7.5,3.03-7.5,6.752a6.381,6.381,0,0,0,2.08,4.66,0.445,0.445,0,0,1,.14.326v3.684a0.445,0.445,0,0,0,.67.5l2.91-2.431a0.435,0.435,0,0,1,.35-0.093,8.346,8.346,0,0,0,1.35.111c4.14,0,7.5-3.029,7.5-6.753s-3.36-6.752-7.5-6.752m0,11.7c-3.16,0-5.74-2.222-5.74-4.953s2.58-4.951,5.74-4.951,5.74,2.222,5.74,4.951-2.58,4.953-5.74,4.953m0-11.7c-4.14,0-7.5,3.03-7.5,6.752a6.381,6.381,0,0,0,2.08,4.66,0.445,0.445,0,0,1,.14.326v3.684a0.445,0.445,0,0,0,.67.5l2.91-2.431a0.435,0.435,0,0,1,.35-0.093,8.346,8.346,0,0,0,1.35.111c4.14,0,7.5-3.029,7.5-6.753s-3.36-6.752-7.5-6.752" transform="translate(-1046 -605)"/>
</svg>
