<svg xmlns="http://www.w3.org/2000/svg" width="16" height="16" viewBox="0 0 16 16">
  <defs>
    <style>
      .cls-1 {
        fill: #afa072;
        fill-rule: evenodd;
      }
    </style>
  </defs>
  <path id="Icon" class="cls-1" d="M749.525,617.378l1.527,4.948a0.561,0.561,0,0,0,.508.411H756.5a0.549,0.549,0,0,1,.314.99l-3.991,3.016a0.568,0.568,0,0,0-.2.621l1.526,4.911a0.541,0.541,0,0,1-.823.625l-4-3.045a0.515,0.515,0,0,0-.628,0l-4,3.041a0.541,0.541,0,0,1-.822-0.627l1.525-4.91a0.574,0.574,0,0,0-.195-0.626l-3.991-3a0.548,0.548,0,0,1,.313-0.99h4.937a0.561,0.561,0,0,0,.509-0.411l1.526-4.936a0.528,0.528,0,0,1,1.017-.012m0,0,1.527,4.948a0.561,0.561,0,0,0,.508.411H756.5a0.549,0.549,0,0,1,.314.99l-3.991,3.016a0.568,0.568,0,0,0-.2.621l1.526,4.911a0.541,0.541,0,0,1-.823.625l-4-3.045a0.515,0.515,0,0,0-.628,0l-4,3.041a0.541,0.541,0,0,1-.822-0.627l1.525-4.91a0.574,0.574,0,0,0-.195-0.626l-3.991-3a0.548,0.548,0,0,1,.313-0.99h4.937a0.561,0.561,0,0,0,.509-0.411l1.526-4.936a0.528,0.528,0,0,1,1.017-.012" transform="translate(-741 -617)"/>
</svg>
